<svg width="34" height="34" viewBox="0 0 34 34" fill="none" xmlns="http://www.w3.org/2000/svg">
<path d="M19.0683 26.7407C19.5565 27.2288 20.348 27.2288 20.8362 26.7407C21.3243 26.2525 21.3243 25.461 20.8362 24.9728L19.0683 26.7407ZM9.02715 13.1639C8.539 12.6757 7.74753 12.6757 7.25938 13.1639C6.77123 13.652 6.77123 14.4435 7.25938 14.9317L9.02715 13.1639ZM23.7883 23.7883C24.2765 23.3002 24.2765 22.5088 23.7883 22.0207C23.3002 21.5325 22.5088 21.5325 22.0207 22.0207L23.7883 23.7883ZM27.7793 16.2598C27.2932 16.7498 27.2962 17.5413 27.7863 18.0275C28.2763 18.5138 29.0678 18.5107 29.554 18.0207L27.7793 16.2598ZM7.05898 16.8998L16.8998 7.05898L15.132 5.29122L5.29122 15.132L7.05898 16.8998ZM7.05898 26.941C5.6423 25.5243 4.67058 24.5488 4.03755 23.7192C3.42653 22.9183 3.25 22.4018 3.25 21.9203H0.750001C0.750001 23.1683 1.26932 24.2123 2.05 25.2357C2.80868 26.23 3.9245 27.342 5.29122 28.7088L7.05898 26.941ZM5.29122 15.132C3.9245 16.4988 2.80868 17.6108 2.05 18.6052C1.26932 19.6283 0.750001 20.6725 0.750001 21.9203H3.25C3.25 21.4388 3.42653 20.9225 4.03755 20.1217C4.67058 19.292 5.6423 18.3165 7.05898 16.8998L5.29122 15.132ZM17.1002 26.941C15.6835 28.3577 14.708 29.3295 13.8783 29.9625C13.0775 30.5735 12.5611 30.75 12.0796 30.75V33.25C13.3275 33.25 14.3717 32.7307 15.3948 31.95C16.3892 31.1913 17.5013 30.0755 18.868 28.7088L17.1002 26.941ZM5.29122 28.7088C6.65793 30.0755 7.77002 31.1913 8.76438 31.95C9.7876 32.7307 10.8317 33.25 12.0796 33.25V30.75C11.5981 30.75 11.0817 30.5735 10.2808 29.9625C9.45115 29.3295 8.47568 28.3577 7.05898 26.941L5.29122 28.7088ZM26.941 7.05898C28.3577 8.47568 29.3295 9.45115 29.9625 10.2808C30.5735 11.0817 30.75 11.5981 30.75 12.0796H33.25C33.25 10.8317 32.7307 9.7876 31.95 8.76438C31.1913 7.77002 30.0755 6.65793 28.7088 5.29122L26.941 7.05898ZM28.7088 5.29122C27.342 3.9245 26.23 2.80868 25.2357 2.05C24.2123 1.26932 23.1683 0.75 21.9203 0.75V3.25C22.4018 3.25 22.9183 3.42653 23.7192 4.03755C24.5488 4.67058 25.5243 5.6423 26.941 7.05898L28.7088 5.29122ZM16.8998 7.05898C18.3165 5.6423 19.292 4.67058 20.1217 4.03755C20.9225 3.42653 21.4388 3.25 21.9203 3.25V0.75C20.6725 0.75 19.6283 1.26932 18.6052 2.05C17.6108 2.80868 16.4988 3.9245 15.132 5.29122L16.8998 7.05898ZM20.8362 24.9728L9.02715 13.1639L7.25938 14.9317L19.0683 26.7407L20.8362 24.9728ZM22.0207 22.0207L17.1002 26.941L18.868 28.7088L23.7883 23.7883L22.0207 22.0207ZM29.554 18.0207C30.6553 16.9107 31.564 15.9598 32.19 15.0673C32.8372 14.1448 33.25 13.1918 33.25 12.0796H30.75C30.75 12.5126 30.6073 12.9701 30.1433 13.6317C29.6582 14.3233 28.9002 15.1302 27.7793 16.2598L29.554 18.0207Z" fill="#5A5A5A"/>
</svg>
