<svg width="31" height="31" viewBox="0 0 31 31" fill="none" xmlns="http://www.w3.org/2000/svg">
<path d="M23.0833 2.24999C23.4554 1.87791 23.8971 1.58276 24.3833 1.3814C24.8694 1.18003 25.3905 1.07639 25.9167 1.07639C26.4429 1.07639 26.9639 1.18003 27.4501 1.3814C27.9362 1.58276 28.3779 1.87791 28.75 2.24999C29.1221 2.62207 29.4172 3.06379 29.6186 3.54993C29.82 4.03608 29.9236 4.55713 29.9236 5.08332C29.9236 5.60952 29.82 6.13057 29.6186 6.61671C29.4172 7.10286 29.1221 7.54458 28.75 7.91666L9.625 27.0417L1.83333 29.1667L3.95833 21.375L23.0833 2.24999Z" stroke="#5A5A5A" stroke-width="2" stroke-linecap="round" stroke-linejoin="round"/>
</svg>
